<mxfile host="app.diagrams.net" modified="2023-12-11T04:32:14.139Z" agent="Mozilla/5.0 (Windows NT 10.0; Win64; x64) AppleWebKit/537.36 (KHTML, like Gecko) Chrome/119.0.0.0 Safari/537.36 Edg/119.0.0.0" version="22.1.7" etag="dA6fq4HhIBSzpNGnxR31" type="github">
  <diagram name="第 1 页" id="3MPBlphcx1f1iYMDVNdA">
    <mxGraphModel>
      <root>
        <mxCell id="0" />
        <mxCell id="1" parent="0" />
      </root>
    </mxGraphModel>
  </diagram>
</mxfile>
